HIERARCHY
ROOT Hips
{
	OFFSET 0.000000 0.000000 0.000000
	CHANNELS 6 Xposition Yposition Zposition Zrotation Yrotation Xrotation
	JOINT LHipJoint
	{
		OFFSET 0.000000 0.000000 0.000000
		CHANNELS 3 Zrotation Yrotation Xrotation
		JOINT LeftUpLeg
		{
			OFFSET 0.076937 -0.101296 0.047373
			CHANNELS 3 Zrotation Yrotation Xrotation
			JOINT LeftLeg
			{
				OFFSET 0.138181 -0.379650 0.000000
				CHANNELS 3 Zrotation Yrotation Xrotation
				JOINT LeftFoot
				{
					OFFSET 0.144621 -0.397343 0.000000
					CHANNELS 3 Zrotation Yrotation Xrotation
					JOINT LeftToeBase
					{
						OFFSET 0.008898 -0.024446 0.131094
						CHANNELS 3 Zrotation Yrotation Xrotation
						End Site
						{
							OFFSET 0.000000 0.000000 0.000000
						}
					}
				}
			}
		}
	}
	JOINT RHipJoint
	{
		OFFSET 0.000000 0.000000 0.000000
		CHANNELS 3 Zrotation Yrotation Xrotation
		JOINT RightUpLeg
		{
			OFFSET -0.073689 -0.101296 0.047373
			CHANNELS 3 Zrotation Yrotation Xrotation
			JOINT RightLeg
			{
				OFFSET -0.143511 -0.394292 0.000000
				CHANNELS 3 Zrotation Yrotation Xrotation
				JOINT RightFoot
				{
					OFFSET -0.144963 -0.398282 0.000000
					CHANNELS 3 Zrotation Yrotation Xrotation
					JOINT RightToeBase
					{
						OFFSET -0.009298 -0.025546 0.133386
						CHANNELS 3 Zrotation Yrotation Xrotation
						End Site
						{
							OFFSET 0.000000 0.000000 0.000000
						}
					}
				}
			}
		}
	}
	JOINT LowerBack
	{
		OFFSET 0.000000 0.000000 0.000000
		CHANNELS 3 Zrotation Yrotation Xrotation
		JOINT Spine
		{
			OFFSET 0.001596 0.114897 -0.010915
			CHANNELS 3 Zrotation Yrotation Xrotation
			JOINT Spine1
			{
				OFFSET 0.003201 0.115645 -0.002413
				CHANNELS 3 Zrotation Yrotation Xrotation
				JOINT Neck
				{
					OFFSET 0.000000 0.000000 0.000000
					CHANNELS 3 Zrotation Yrotation Xrotation
					JOINT Neck1
					{
						OFFSET -0.003058 0.098565 0.009709
						CHANNELS 3 Zrotation Yrotation Xrotation
						JOINT Head
						{
							OFFSET 0.005874 0.099418 -0.006997
							CHANNELS 3 Zrotation Yrotation Xrotation
							End Site
							{
								OFFSET 0.000000 0.000000 0.000000
							}
						}
					}
				}
				JOINT LeftShoulder
				{
					OFFSET 0.000000 0.000000 0.000000
					CHANNELS 3 Zrotation Yrotation Xrotation
					JOINT LeftArm
					{
						OFFSET 0.189788 0.067783 -0.017566
						CHANNELS 3 Zrotation Yrotation Xrotation
						JOINT LeftForeArm
						{
							OFFSET 0.281260 -0.000000 -0.000000
							CHANNELS 3 Zrotation Yrotation Xrotation
							JOINT LeftHand
							{
								OFFSET 0.196626 -0.000000 -0.000000
								CHANNELS 3 Zrotation Yrotation Xrotation
								JOINT LeftFingerBase
								{
									OFFSET 0.000000 0.000000 0.000000
									CHANNELS 3 Zrotation Yrotation Xrotation
									JOINT LeftHandIndex1
									{
										OFFSET 0.040372 -0.000000 -0.000000
										CHANNELS 3 Zrotation Yrotation Xrotation
										End Site
										{
											OFFSET 0.000000 0.000000 0.000000
										}
									}
								}
								JOINT LThumb
								{
									OFFSET 0.000000 0.000000 0.000000
									CHANNELS 3 Zrotation Yrotation Xrotation
									End Site
									{
										OFFSET 0.000000 0.000000 0.000000
									}
								}
							}
						}
					}
				}
				JOINT RightShoulder
				{
					OFFSET 0.000000 0.000000 0.000000
					CHANNELS 3 Zrotation Yrotation Xrotation
					JOINT RightArm
					{
						OFFSET -0.177042 0.077557 -0.022840
						CHANNELS 3 Zrotation Yrotation Xrotation
						JOINT RightForeArm
						{
							OFFSET -0.295874 -0.000000 -0.000000
							CHANNELS 3 Zrotation Yrotation Xrotation
							JOINT RightHand
							{
								OFFSET -0.194403 -0.000000 -0.000000
								CHANNELS 3 Zrotation Yrotation Xrotation
								JOINT RightFingerBase
								{
									OFFSET 0.000000 0.000000 0.000000
									CHANNELS 3 Zrotation Yrotation Xrotation
									JOINT RightHandIndex1
									{
										OFFSET -0.035138 -0.000000 -0.000000
										CHANNELS 3 Zrotation Yrotation Xrotation
										End Site
										{
											OFFSET 0.000000 0.000000 0.000000
										}
									}
								}
								JOINT RThumb
								{
									OFFSET 0.000000 0.000000 0.000000
									CHANNELS 3 Zrotation Yrotation Xrotation
									End Site
									{
										OFFSET 0.000000 0.000000 0.000000
									}
								}
							}
						}
					}
				}
			}
		}
	}
}
MOTION
Frames: 11
Frame Time: 0.033333
-1.336100 0.981011 -9.710689 179.949429 34.588939 -177.213856 -1.036748 21.808138 4.365823 -18.591443 -4.928868 -11.218980 0.473253 0.687378 18.819924 24.237376 -4.232270 -7.101735 -4.158336 0.948393 -7.161832 -2.479573 -25.240187 -1.157228 23.297941 0.475627 -9.557325 -6.192283 -2.105845 24.751659 -29.170235 8.445528 -11.613629 4.882177 -3.114920 -8.888561 4.995701 4.752353 7.846359 9.754841 4.341927 18.655743 -9.225696 -7.865816 -35.322362 -4.994161 2.825381 -11.080701 4.889636 2.884214 18.172565 -1.098278 1.453204 -4.896939 -2.081845 27.155473 5.600190 -71.383817 -9.583927 60.842373 -1.021485 -34.498945 15.863915 8.229461 -7.237828 10.815900 -4.962826 16.863123 0.011692 -0.002721 -0.008525 0.010409 0.001133 -0.005684 -0.004521 -2.126796 -39.654394 -2.265277 74.686386 1.952350 52.984333 -0.339480 24.328531 14.723241 -3.639210 12.929850 5.980411 4.172497 -15.355332 -0.121728 -0.024417 -0.041567 0.030916 -0.002108 -0.000268 0.009988 
-1.336060 0.981036 -9.710672 179.948629 34.589205 -177.214733 -1.040200 21.805695 4.371998 -18.592563 -4.941089 -11.220705 0.476577 0.687502 18.820994 24.237774 -4.222218 -7.102014 -4.155178 0.946619 -7.162369 -2.480939 -25.244660 -1.163857 23.302863 0.482666 -9.568590 -6.194819 -2.106561 24.770054 -29.168050 8.448242 -11.605263 4.883972 -3.112633 -8.890851 5.006266 4.761944 7.856064 9.789613 4.353924 18.651466 -9.245503 -7.891429 -35.311561 -5.002207 2.837708 -11.080843 4.884521 2.900880 18.178441 -1.096082 1.467390 -4.891575 -2.081600 27.135717 5.597040 -71.382151 -9.598189 60.840386 -1.025575 -34.540383 15.864009 8.239955 -7.231307 10.823496 -4.959508 16.861554 0.011530 -0.002737 -0.008526 0.010406 0.001121 -0.005670 -0.004507 -2.144181 -39.663055 -2.264987 74.694598 1.947830 52.958785 -0.333053 24.347890 14.728504 -3.632751 12.935635 5.974793 4.170738 -15.352883 -0.121713 -0.024387 -0.041564 0.030917 -0.002109 -0.000270 0.010016 
-1.335999 0.981062 -9.710650 -179.957025 34.464172 -177.102158 -1.081212 21.674191 4.390573 -18.320467 -4.898695 -11.296250 0.408025 0.707630 18.798516 24.131639 -4.167991 -6.945486 -4.198368 0.976943 -7.187801 -2.380516 -25.397192 -1.214493 23.305528 0.236227 -9.676889 -6.161271 -2.215375 24.859104 -29.117879 8.508852 -11.643407 4.966083 -3.217101 -8.931579 4.939673 4.997944 7.901609 10.129320 4.584391 18.678222 -9.519603 -8.010262 -35.369632 -5.200423 3.568523 -11.085779 5.014886 3.590803 18.325473 -0.985579 1.747325 -4.783209 -2.067265 26.715819 5.603309 -71.584407 -9.641632 61.010895 -1.039362 -34.649020 15.776741 8.324116 -7.098271 10.797405 -4.913866 16.852074 0.019555 -0.002835 -0.008661 0.010337 0.000706 -0.005722 -0.004407 -2.208653 -40.076207 -2.409115 74.719388 1.698041 53.127014 -0.226807 24.155312 14.777360 -3.561742 12.896810 5.973944 4.255681 -15.365542 -0.129422 -0.024152 -0.041727 0.030664 -0.002237 -0.000251 0.010196 
-1.335949 0.981097 -9.710628 -179.951320 34.460663 -177.087420 -1.115855 21.647082 4.424860 -18.214489 -4.878675 -11.328586 0.397212 0.723684 18.793416 24.079748 -4.141981 -6.911849 -4.219003 0.985118 -7.203204 -2.357709 -25.428906 -1.257113 23.289068 0.129233 -9.697427 -6.176485 -2.237832 24.874718 -29.110616 8.561565 -11.671225 5.004821 -3.246939 -8.951950 4.863186 5.028731 7.956009 10.200575 4.624293 18.668845 -9.540090 -8.039354 -35.404398 -5.209764 3.565087 -11.084960 4.996303 3.593384 18.331052 -0.987809 1.757175 -4.773783 -2.053795 26.711064 5.575336 -71.636256 -9.629598 61.006232 -1.070001 -34.726428 15.746099 8.343286 -7.058655 10.778624 -4.885284 16.841564 0.025734 -0.002812 -0.008695 0.010344 0.000712 -0.005849 -0.004458 -2.236191 -40.101936 -2.434212 74.732768 1.654250 53.203266 -0.192198 24.084632 14.782768 -3.542455 12.904336 5.974255 4.286464 -15.363216 -0.131969 -0.024187 -0.041647 0.030645 -0.002293 -0.000245 0.010216 
-1.335911 0.981122 -9.710612 -179.947376 34.457154 -177.079573 -1.130586 21.636822 4.439788 -18.168210 -4.868249 -11.340830 0.393622 0.731951 18.791883 24.056117 -4.131928 -6.906419 -4.227626 0.988606 -7.209683 -2.347153 -25.438776 -1.279396 23.284132 0.084522 -9.705292 -6.188762 -2.243658 24.882313 -29.112646 8.585980 -11.681743 5.020497 -3.256607 -8.961752 4.822538 5.037772 7.987999 10.226420 4.638148 18.659446 -9.544598 -8.054204 -35.418024 -5.209114 3.550007 -11.085393 4.990817 3.579458 18.326625 -0.990855 1.750026 -4.774374 -2.043549 26.714603 5.564220 -71.652105 -9.626003 60.987353 -1.084098 -34.769099 15.731496 8.349127 -7.046865 10.767535 -4.871543 16.835577 0.028513 -0.002803 -0.008704 0.010345 0.000723 -0.005917 -0.004492 -2.253827 -40.109995 -2.446012 74.744295 1.635208 53.237607 -0.174379 24.068076 14.789072 -3.538164 12.912765 5.977987 4.299873 -15.359411 -0.132947 -0.024208 -0.041602 0.030639 -0.002314 -0.000236 0.010218 
-1.335881 0.981137 -9.710601 -179.944517 34.454042 -177.075055 -1.136947 21.633835 4.446319 -18.147987 -4.862318 -11.345719 0.391493 0.736479 18.791993 24.045271 -4.128380 -6.907608 -4.231283 0.990378 -7.212460 -2.341972 -25.441869 -1.291265 23.284140 0.064191 -9.707265 -6.196410 -2.244146 24.883912 -29.116935 8.598470 -11.686906 5.026767 -3.259342 -8.966406 4.798573 5.038776 8.005657 10.233120 4.641667 18.653578 -9.542316 -8.059409 -35.423859 -5.205886 3.534876 -11.085762 4.989060 3.563990 18.321021 -0.993653 1.740470 -4.777259 -2.037072 26.719622 5.558639 -71.657724 -9.624769 60.970867 -1.089582 -34.791089 15.724235 8.349941 -7.044986 10.760365 -4.864564 16.832091 0.029898 -0.002799 -0.008706 0.010344 0.000733 -0.005956 -0.004513 -2.262032 -40.109229 -2.451684 74.750665 1.627544 53.256493 -0.165270 24.067047 14.793308 -3.538415 12.918366 5.982192 4.306470 -15.356793 -0.133418 -0.024223 -0.041577 0.030636 -0.002323 -0.000229 0.010216 
-1.335854 0.981144 -9.710593 -179.942391 34.451294 -177.072396 -1.139601 21.633766 4.449224 -18.139230 -4.858694 -11.347642 0.389540 0.739086 18.792803 24.040195 -4.127408 -6.909876 -4.232794 0.991436 -7.213653 -2.339344 -25.442867 -1.297787 23.286372 0.054058 -9.706157 -6.200853 -2.242966 24.882192 -29.121425 8.605523 -11.690651 5.029049 -3.259584 -8.968548 4.783036 5.037055 8.015350 10.232010 4.641268 18.650124 -9.537425 -8.059578 -35.426358 -5.202337 3.522145 -11.085856 4.988371 3.550528 18.315949 -0.995999 1.732007 -4.780480 -2.033107 26.724177 5.555417 -71.660343 -9.624132 60.958460 -1.090796 -34.802490 15.720654 8.348987 -7.046576 10.755452 -4.860865 16.830022 0.030655 -0.002796 -0.008707 0.010344 0.000742 -0.005979 -0.004528 -2.264621 -40.104808 -2.454339 74.753324 1.625116 53.268426 -0.160835 24.069801 14.795584 -3.539895 12.921964 5.985892 4.309985 -15.355272 -0.133697 -0.024234 -0.041563 0.030634 -0.002326 -0.000224 0.010213 
-1.335832 0.981071 -9.710610 -179.828559 34.339420 -176.986176 -1.156351 21.570919 4.451629 -17.936568 -4.762297 -11.398450 0.316401 0.738979 18.703447 23.943936 -4.128989 -6.772235 -4.274821 1.011319 -7.203784 -2.278325 -25.586872 -1.280610 23.298051 -0.130256 -9.765554 -6.136774 -2.301870 24.930604 -29.094753 8.681948 -11.694971 5.094608 -3.355662 -9.004411 4.755673 5.201861 8.069414 10.423066 4.799447 18.684502 -9.734621 -8.085449 -35.474364 -5.362084 4.179623 -11.100105 5.125338 4.173491 18.448416 -0.892072 1.977253 -4.685382 -2.008178 26.394176 5.549153 -71.830411 -9.671791 61.070688 -1.072140 -34.774873 15.688557 8.371740 -6.954413 10.709571 -4.836876 16.809920 0.037296 -0.002856 -0.008787 0.010352 0.000527 -0.005976 -0.004454 -2.278848 -40.431260 -2.580922 74.735190 1.456907 53.459396 -0.105532 23.902039 14.883107 -3.506115 12.897208 6.028323 4.386036 -15.366171 -0.140872 -0.024083 -0.041624 0.030446 -0.002485 -0.000241 0.010366 
-1.335810 0.981002 -9.710619 -179.809477 34.329523 -176.949860 -1.232319 21.537405 4.492598 -17.746220 -4.678844 -11.469322 0.278057 0.759432 18.646531 23.844643 -4.104586 -6.676401 -4.319274 1.026283 -7.211789 -2.264868 -25.663220 -1.320479 23.264883 -0.353062 -9.761234 -6.117312 -2.331487 24.900348 -29.091335 8.808451 -11.761872 5.168204 -3.433085 -9.038838 4.593110 5.241482 8.145225 10.457800 4.848358 18.692900 -9.732627 -8.044761 -35.560011 -5.376669 4.237477 -11.103665 5.118273 4.235949 18.473997 -0.884111 2.011395 -4.662091 -1.981109 26.404332 5.479189 -71.956431 -9.642537 61.079935 -1.095099 -34.771268 15.651972 8.367327 -6.890445 10.645629 -4.794031 16.783493 0.049622 -0.002811 -0.008850 0.010395 0.000602 -0.006200 -0.004545 -2.267587 -40.463096 -2.634051 74.712425 1.402585 53.683911 -0.064389 23.715225 14.905639 -3.479567 12.893718 6.052507 4.452601 -15.370871 -0.146732 -0.024208 -0.041472 0.030383 -0.002627 -0.000259 0.010410 
-1.335794 0.980982 -9.710615 -179.798831 34.322724 -176.933787 -1.260911 21.522878 4.507032 -17.663801 -4.638719 -11.492277 0.264007 0.770345 18.630041 23.800298 -4.098885 -6.653670 -4.338236 1.033133 -7.216780 -2.254038 -25.685421 -1.343173 23.250294 -0.452266 -9.748157 -6.126800 -2.343807 24.891568 -29.100059 8.857605 -11.801807 5.197106 -3.460209 -9.057864 4.493116 5.245888 8.190700 10.439254 4.856412 18.686675 -9.707666 -8.016327 -35.600274 -5.366723 4.223963 -11.105488 5.126238 4.217151 18.463767 -0.887336 1.988496 -4.668785 -1.963358 26.430594 5.455655 -71.991320 -9.624200 61.050784 -1.104250 -34.763910 15.628898 8.356009 -6.880865 10.608995 -4.774989 16.771836 0.055044 -0.002792 -0.008865 0.010405 0.000643 -0.006332 -0.004616 -2.263022 -40.463771 -2.656344 74.715590 1.379086 53.795199 -0.032546 23.665102 14.914852 -3.463475 12.885529 6.049607 4.475584 -15.368418 -0.148534 -0.024285 -0.041407 0.030349 -0.002674 -0.000243 0.010392 
-1.335778 0.980973 -9.710613 -179.791108 34.317260 -176.924017 -1.270616 21.517486 4.510769 -17.626814 -4.617066 -11.500361 0.255171 0.775947 18.624815 23.777905 -4.099833 -6.649056 -4.346477 1.036717 -7.218161 -2.246438 -25.691111 -1.354836 23.244848 -0.497951 -9.737251 -6.138796 -2.349951 24.888009 -29.110412 8.876555 -11.824169 5.207954 -3.470228 -9.068415 4.427174 5.239125 8.213074 10.404623 4.850460 18.681792 -9.679297 -7.988841 -35.620493 -5.353333 4.201072 -11.106188 5.137906 4.186660 18.448984 -0.891973 1.957486 -4.680553 -1.952433 26.453059 5.446682 -72.001215 -9.612098 61.019095 -1.102802 -34.748394 15.614497 8.342857 -6.887956 10.584041 -4.765657 16.765744 0.057743 -0.002778 -0.008871 0.010407 0.000666 -0.006416 -0.004667 -2.253331 -40.451990 -2.667392 74.719744 1.369252 53.861431 -0.014682 23.655184 14.918151 -3.459955 12.880210 6.050258 4.486328 -15.366087 -0.149304 -0.024337 -0.041379 0.030330 -0.002689 -0.000226 0.010366 
